<svg width="6544" height="146" viewBox="0 0 6544 146" fill="none" xmlns="http://www.w3.org/2000/svg">
<path d="M3419.5 73H6507C6527.16 73 6543.5 56.6584 6543.5 36.5C6543.5 16.3416 6527.16 0 6507 0H3270.5C3242.89 0 3220.5 22.3858 3220.5 50V96C3220.5 123.614 3242.89 146 3270.5 146H3346.5C3366.66 146 3383 129.658 3383 109.5C3383 89.3416 3399.34 73 3419.5 73Z" fill="white"/>
<path d="M3124 73H36.5C16.3416 73 0 56.6584 0 36.5C0 16.3416 16.3416 0 36.5 0H3273C3300.61 0 3323 22.3858 3323 50V96C3323 123.614 3300.61 146 3273 146H3197C3176.84 146 3160.5 129.658 3160.5 109.5C3160.5 89.3416 3144.16 73 3124 73Z" fill="white"/>
</svg>
